<?xml version="1.0" standalone="no"?>
<!DOCTYPE svg PUBLIC "-//W3C//DTD SVG 20010904//EN"
 "http://www.w3.org/TR/2001/REC-SVG-20010904/DTD/svg10.dtd">
<svg version="1.0" xmlns="http://www.w3.org/2000/svg"
 width="1920.000000pt" height="1920.000000pt" viewBox="0 0 1920.000000 1920.000000"
 preserveAspectRatio="xMidYMid meet">

<g transform="translate(0.000000,1920.000000) scale(0.100000,-0.100000)"
fill="#000000" stroke="none">
<path d="M9705 13204 c-167 -25 -300 -72 -555 -197 -182 -89 -303 -137 -476
-187 -98 -28 -145 -64 -183 -142 -39 -79 -51 -144 -51 -267 0 -243 110 -664
272 -1045 148 -349 170 -417 188 -587 5 -56 10 -143 10 -194 0 -95 11 -125 44
-125 24 0 65 51 85 105 52 137 48 294 -15 595 -42 203 -46 330 -10 330 31 0
143 -147 225 -295 19 -33 35 -61 36 -63 8 -9 49 23 75 60 42 58 65 125 105
313 39 182 62 245 96 269 53 37 139 1 172 -72 18 -41 21 -66 22 -187 0 -77 -4
-202 -9 -277 -7 -115 -6 -138 5 -138 8 0 70 34 139 75 145 87 216 114 255 97
22 -10 25 -18 25 -59 0 -27 -9 -67 -20 -91 -37 -82 -172 -204 -399 -360 -159
-109 -236 -198 -217 -247 15 -40 64 -18 411 184 358 209 443 270 623 452 293
298 397 557 362 904 -26 256 -55 309 -306 565 -106 107 -220 230 -253 272
-119 149 -250 248 -381 289 -63 19 -213 32 -275 23z"/>
<path d="M13162 12900 c-18 -11 -41 -34 -53 -52 -21 -34 -21 -69 -2 -197 4
-32 3 -42 -5 -37 -7 4 -12 16 -12 27 0 59 -95 196 -166 240 -96 59 -214 -26
-214 -156 0 -85 40 -114 159 -116 36 0 74 -4 84 -8 10 -3 -24 -7 -75 -7 -108
0 -180 -25 -224 -77 -48 -57 -17 -143 64 -182 23 -11 41 -23 42 -27 0 -13
-328 -214 -336 -205 -2 2 4 24 15 48 47 107 53 247 11 281 -48 39 -128 7 -160
-65 -26 -56 -25 -61 15 -141 38 -76 47 -152 21 -179 -16 -16 -176 -101 -181
-95 -1 1 2 32 8 67 12 72 -2 191 -28 242 -46 88 -155 33 -155 -79 0 -37 6 -49
38 -81 68 -68 82 -91 82 -137 0 -50 -5 -54 -158 -133 l-83 -42 8 53 c17 113
-1 276 -37 348 -31 60 -64 84 -106 77 -70 -12 -114 -76 -114 -169 l0 -52 80
-77 c86 -83 100 -107 100 -174 l0 -44 -142 -78 c-78 -43 -145 -79 -148 -81 -3
-1 -6 44 -6 100 -1 165 -50 288 -114 288 -38 0 -87 -38 -104 -80 -31 -77 -18
-115 64 -195 59 -57 80 -92 79 -132 0 -26 -17 -38 -186 -138 -654 -388 -1195
-807 -1728 -1340 -295 -294 -421 -435 -453 -504 -72 -157 8 -362 165 -421 65
-24 99 -25 174 -4 108 30 173 92 369 350 394 520 707 862 1155 1263 134 121
384 317 578 455 l138 99 57 -56 c61 -60 94 -77 148 -77 50 0 95 22 132 64 66
75 20 159 -100 181 -21 4 -38 10 -38 14 0 9 197 132 221 138 15 4 32 -6 63
-36 66 -65 145 -64 190 1 36 51 3 97 -82 113 -44 8 -40 12 86 89 l93 57 68
-71 c64 -66 70 -70 112 -70 93 1 162 73 129 135 -16 29 -78 61 -137 71 -24 4
-43 10 -43 13 0 4 13 15 29 24 59 35 258 181 338 248 45 38 84 69 88 69 3 0 1
-9 -5 -19 -27 -52 -4 -109 60 -141 74 -38 164 -19 195 40 30 58 10 198 -40
274 -10 15 -15 29 -12 32 10 10 46 -49 72 -119 37 -98 63 -120 131 -115 66 6
119 43 146 106 30 66 20 107 -37 159 -46 42 -145 83 -201 83 -26 0 -33 24 -10
33 8 3 26 30 40 59 68 140 28 288 -78 288 -23 0 -55 -9 -74 -20z m-162 -387
c0 -16 -135 -131 -138 -118 -5 20 35 91 60 109 23 16 78 22 78 9z"/>
<path d="M7244 12297 c-49 -13 -66 -21 -227 -104 -90 -47 -156 -61 -322 -68
-170 -6 -266 -39 -387 -131 -68 -53 -99 -91 -171 -214 -161 -276 -252 -501
-264 -650 -8 -103 11 -170 102 -360 82 -173 104 -239 139 -417 14 -68 35 -143
47 -169 33 -64 98 -120 192 -164 184 -85 381 -107 687 -74 352 37 445 27 938
-96 242 -60 332 -79 332 -67 0 20 -47 161 -66 200 -36 70 -117 152 -178 181
-112 53 -194 54 -416 7 -108 -24 -149 -25 -205 -10 -42 12 -115 76 -115 101 0
35 33 47 140 51 124 5 181 20 222 59 27 25 30 33 26 72 -7 58 -45 138 -151
316 -156 262 -130 295 128 167 72 -36 184 -104 250 -151 206 -147 238 -142
269 42 25 146 46 182 99 168 71 -18 164 -310 182 -571 9 -129 20 -175 63 -258
51 -98 113 -142 150 -105 35 35 -7 277 -112 643 -60 211 -94 291 -222 522
-363 658 -617 974 -852 1063 -70 27 -205 35 -278 17z"/>
<path d="M11845 10873 c-392 -48 -723 -179 -1058 -416 -133 -94 -336 -296
-409 -407 -66 -99 -147 -263 -155 -314 -17 -105 139 -13 412 244 213 200 322
276 431 300 39 9 50 8 62 -4 13 -13 12 -18 -4 -44 -78 -123 -105 -173 -102
-189 3 -16 20 -19 158 -24 289 -12 563 -89 669 -188 40 -37 39 -69 -4 -91 -46
-23 -266 -18 -444 9 -270 42 -523 21 -486 -39 13 -21 99 -52 212 -76 188 -40
263 -77 263 -130 0 -17 -10 -31 -32 -45 -29 -18 -44 -20 -133 -15 -55 2 -154
10 -219 16 -197 20 -355 -4 -552 -82 -206 -81 -234 -154 -50 -132 39 5 125 9
191 8 249 -1 459 -91 776 -332 74 -56 199 -151 278 -211 174 -133 237 -162
363 -169 51 -2 108 1 135 7 77 19 202 85 290 153 409 317 498 399 557 516 93
185 68 362 -86 590 -28 41 -66 108 -86 150 l-37 77 4 120 c10 243 7 286 -19
339 -70 144 -288 296 -501 350 -124 31 -308 44 -424 29z"/>
<path d="M6913 9710 c-144 -22 -295 -57 -453 -107 -337 -105 -482 -216 -557
-427 -7 -23 -20 -113 -28 -201 -17 -191 -36 -271 -120 -498 -103 -280 -114
-378 -61 -535 96 -282 261 -429 597 -532 310 -95 478 -184 671 -357 201 -180
398 -302 558 -347 208 -58 423 -7 681 164 189 125 377 295 482 435 77 103 164
283 222 460 64 195 86 301 92 440 8 192 -29 307 -128 400 -43 40 -53 45 -94
45 -84 0 -95 -14 -130 -158 -69 -285 -161 -429 -323 -505 -124 -58 -237 -47
-261 26 -23 67 21 158 154 318 125 151 152 238 96 301 -26 29 -35 33 -78 31
-62 -2 -181 -44 -374 -134 -316 -146 -412 -183 -521 -199 -68 -10 -119 1 -148
32 -31 34 -24 58 33 112 56 54 139 106 332 206 295 154 369 206 363 258 -6 53
-134 92 -348 106 -170 12 -240 39 -240 93 0 56 114 123 209 123 20 0 83 -12
141 -26 194 -47 389 -43 578 12 160 46 252 103 252 157 0 31 -41 67 -101 90
-95 35 -480 141 -664 182 -257 58 -589 72 -832 35z"/>
<path d="M10312 9008 c-49 -17 -95 -74 -87 -107 9 -37 29 -56 92 -86 161 -76
380 -264 558 -480 303 -367 262 -499 -88 -284 -56 34 -156 101 -222 147 -172
121 -229 146 -259 116 -36 -36 -14 -142 83 -401 42 -111 63 -184 70 -241 21
-170 -26 -359 -112 -449 -60 -64 -123 -53 -171 30 -51 86 -67 199 -90 617 -8
153 -88 207 -214 143 -53 -27 -93 -59 -302 -243 -227 -200 -304 -223 -208 -64
23 38 74 114 113 169 160 223 232 348 279 488 57 172 79 368 44 403 -29 29
-67 9 -160 -86 -229 -234 -455 -589 -616 -965 -86 -202 -249 -639 -267 -715
-43 -185 13 -343 173 -491 83 -77 213 -166 298 -206 62 -29 88 -31 310 -22 78
4 84 2 165 -38 46 -23 123 -72 171 -107 168 -126 305 -175 508 -183 224 -9
336 31 454 162 69 77 103 101 463 333 215 138 311 239 393 415 48 102 102 285
125 426 84 502 -215 1012 -890 1520 -117 88 -252 160 -350 186 -78 20 -220 28
-263 13z"/>
</g>
</svg>
